<svg xmlns="http://www.w3.org/2000/svg" viewBox="0 0 64 64">
  <defs>
    <linearGradient id="bg" x1="10" y1="8" x2="54" y2="58" gradientUnits="userSpaceOnUse">
      <stop stop-color="#eee7ff"/>
      <stop offset="1" stop-color="#d7c8f6"/>
    </linearGradient>
    <linearGradient id="mark" x1="20" y1="18" x2="44" y2="46" gradientUnits="userSpaceOnUse">
      <stop stop-color="#7655ba"/>
      <stop offset="1" stop-color="#4d367f"/>
    </linearGradient>
  </defs>
  <rect x="3" y="3" width="58" height="58" rx="20" fill="url(#bg)"/>
  <path d="M17 19.5c0-3 2.5-5.5 5.5-5.5h19c3 0 5.5 2.5 5.5 5.5v16c0 3-2.5 5.5-5.5 5.5H31l-8.7 7.4c-1.3 1.1-3.3.2-3.3-1.5V41.3a5.5 5.5 0 0 1-2-4.3V19.5Z" fill="url(#mark)"/>
  <circle cx="25" cy="28" r="2.3" fill="#f8f4ff"/>
  <circle cx="32" cy="28" r="2.3" fill="#f8f4ff"/>
  <circle cx="39" cy="28" r="2.3" fill="#f8f4ff"/>
</svg>
