<svg xmlns="http://www.w3.org/2000/svg" viewBox="0 0 64 64" fill="none">
  <path d="M20 24v-4c0-10 24-10 24 0v4" stroke="#914CFF" stroke-width="6" stroke-linecap="round"/>
  <path d="M16 26c0-7 32-7 32 0v10c0 13-32 13-32 0V26Z" fill="#15191C" stroke="#D7FF00" stroke-width="4"/>
  <circle cx="25" cy="31" r="2.2" fill="#58E2AB"/><circle cx="39" cy="31" r="2.2" fill="#58E2AB"/>
  <path d="M32 7v7M26 11l-3-4M38 11l3-4" stroke="#F2F5EF" stroke-width="3" stroke-linecap="round"/>
  <path d="M10 48c9-1 15 1 22 7 7-6 13-8 22-7v9c-9-1-15 1-22 7-7-6-13-8-22-7v-9Z" fill="#914CFF"/>
  <path d="M32 55v7M16 52c6 0 11 2 16 6 5-4 10-6 16-6" stroke="#F2F5EF" stroke-width="2" stroke-linecap="round"/>
</svg>
